<?xml version="1.0" encoding="utf-8"?>
<svg viewBox="0 0 352 65" xmlns="http://www.w3.org/2000/svg">
  <rect data-v-0dd9719b="" fill="transparent" fill-opacity="1"
    transform="matrix(1, 0, 0, 1, 0, 1.4210854715202004e-14)" />
  <g data-v-0dd9719b="" fill="#333" transform="matrix(1, 0, 0, 1, 14.017807006835945, 7.059020996093764)">
    <g transform="translate(0,0)">
      <g>
        <rect fill="#333" fill-opacity="0" stroke-width="2" x="0" y="0" />
        <svg x="0" y="0" width="60" height="50.88195386702849" filtersec="colorsb4298530459" style="overflow: visible;">
          <svg xmlns="http://www.w3.org/2000/svg"
            viewBox="0 -0.0010010600090026855 50.06999969482422 42.46099853515625">
            <path
              d="M6.67 10.31l.15.12a30.12 30.12 0 0 0 5.62 3.35v.21c-.14 4.78 0 9.56-.06 14.34 4 2.53 8.2 4.75 12.27 7.17l.37.36c.09 2.12-.22 4.27.23 6.37v.23C16.85 40.15 8.42 37.92 0 35.68c2-8.51 4.49-16.9 6.67-25.37z"
              fill="#175bec" />
            <path
              d="M37.71 13.71C41.9 11.49 46 9 50.07 6.66c-2.07 8.08-4.31 16.12-6.43 24.19-.11 1.19-1.36 1.48-2.21 2C36 36 30.63 39.14 25.21 42.23c-.45-2.1-.14-4.25-.23-6.37l.21-.25c3.86-2.16 7.66-4.42 11.51-6.59.39-.3 1.09-.52 1-1.15.04-4.72-.06-9.44.01-14.16z"
              fill="#198efb" />
            <path
              d="M23.83.57c.52-.24 1.06-.76 1.69-.5q12.29 3.27 24.55 6.59C46 9 41.9 11.49 37.71 13.71l-.17.1C33.41 11.33 29.2 9 25 6.55c-4.23 2.34-8.38 4.83-12.59 7.23a30.12 30.12 0 0 1-5.62-3.35C12.47 7.11 18.18 3.89 23.83.57z"
              fill="#198efb" />
            <path
              d="M12.44 13.78c4.21-2.4 8.36-4.89 12.56-7.23 4.2 2.45 8.41 4.78 12.54 7.26-4 2.63-8.34 4.75-12.32 7.42-.12 4.79 0 9.59 0 14.38l-.21.25-.37-.36c.17-4.77.27-9.56 0-14.33-2.56-2-5.59-3.33-8.35-5A38.77 38.77 0 0 0 12.4 14z"
              fill="#87ebff" />
            <path
              d="M37.54 13.81l.17-.1c-.07 4.72 0 9.44 0 14.16.11.63-.59.85-1 1.15-3.85 2.17-7.65 4.43-11.51 6.59 0-4.79-.09-9.59 0-14.38 4-2.67 8.33-4.79 12.34-7.42z"
              fill="#87ebff" />
          </svg>
        </svg>
      </g>
    </g>
    <g transform="translate(67,6.55042839050293)">
      <g data-gra="path-name" fill-rule="" stroke="#333">
        <g transform="scale(1.2600000000000002)">
          <g>
            <path
              d="M7.1-20.97L7.1-20.97Q8.01-20.97 10.17-20.475L10.17-20.475 10.83-20.355 10.75-17.85Q8.55-18.225 7.51-18.225L7.51-18.225Q5.18-18.225 4.35-16.56 3.51-14.895 3.51-10.379999999999999 3.51-5.88 4.29-4.11 5.07-2.34 7.54-2.34L7.54-2.34 10.78-2.715 10.86-0.165Q8.31 0.405 7.05 0.405L7.05 0.405Q3.84 0.405 2.62-2.055 1.4-4.53 1.4-10.379999999999999 1.4-16.245 2.71-18.615000000000002 4.03-20.97 7.1-20.97ZM26.61-14.355L26.61-14.355 26.61-3.8249999999999997Q26.69-2.31 28.2-2.0100000000000002L28.2-2.0100000000000002 28.12 0.405Q25.95 0.405 24.85-1.23L24.85-1.23Q22.39 0.405 19.92 0.405L19.92 0.405Q18.03 0.405 17.04-1.2000000000000002 16.05-2.79 16.05-5.805 16.05-8.805 17.07-10.215 18.08-11.64 20.25-11.97L20.25-11.97 24.55-12.585 24.55-14.355Q24.55-16.455000000000002 23.95-17.355 23.35-18.255 22.3-18.255L22.3-18.255Q20.11-18.255 17.75-17.85L17.75-17.85 16.9-17.73 16.82-20.07Q19.84-20.97 22.17-20.97 24.5-20.97 25.55-19.365000000000002 26.61-17.775 26.61-14.355ZM18.16-5.97L18.16-5.97Q18.16-2.175 20.25-2.175L20.25-2.175Q22.11-2.175 23.92-3.12L23.92-3.12 24.55-3.4499999999999997 24.55-10.245000000000001 20.49-9.66Q19.26-9.495000000000001 18.71-8.595 18.16-7.695 18.16-5.97ZM35.72 0L33.67 0 33.67-20.565 35.7-20.565 35.7-17.775Q38.08-20.235 40.71-21.015L40.71-21.015 40.71-17.895Q39.56-17.565 38.31-16.86 37.07-16.169999999999998 36.41-15.629999999999999L36.41-15.629999999999999 35.72-15.09 35.72 0ZM48.37 0L46.32 0 46.32-29.535000000000004 48.37-29.535000000000004 48.37 0ZM54.88-10.32Q54.88-15.96 56.23-18.465 57.57-20.97 60.77-20.97 63.96-20.97 65.29-18.465 66.62-15.96 66.62-10.32 66.62-4.695 65.36-2.145 64.1 0.405 60.75 0.405 57.41 0.405 56.15-2.145 54.88-4.695 54.88-10.32ZM57-10.379999999999999Q57-5.88 57.72-4.0649999999999995 58.45-2.265 60.77-2.265 63.08-2.265 63.8-4.050000000000001 64.51-5.835 64.51-10.365 64.51-14.895 63.71-16.59 62.92-18.299999999999997 60.77-18.299999999999997 58.61-18.299999999999997 57.8-16.59 57-14.895 57-10.379999999999999ZM77.27-18.225L77.27-18.225Q74.28-18.225 74.28-15.09L74.28-15.09Q74.28-13.649999999999999 74.97-13.065000000000001 75.65-12.465 78.09-11.82 80.53-11.19 81.55-10.035 82.56-8.879999999999999 82.56-5.715 82.56-2.55 81.2-1.065 79.85 0.405 77.24 0.405L77.24 0.405Q75.54 0.405 73.24-0.165L73.24-0.165 72.42-0.375 72.53-3.045Q75.65-2.34 77.24-2.34 78.83-2.34 79.67-3.1049999999999995 80.5-3.87 80.5-5.655 80.5-7.4399999999999995 79.79-8.084999999999999 79.08-8.715 76.67-9.3 74.25-9.870000000000001 73.24-10.98 72.22-12.09 72.22-15.09 72.22-18.09 73.64-19.53 75.05-20.97 77.16-20.97L77.16-20.97Q78.83-20.97 81.35-20.4L81.35-20.4 82.12-20.19 82.07-17.565Q79.02-18.225 77.27-18.225ZM90.77-16.695L90.77 0 88.71 0 88.71-20.565 90.74-20.565 90.74-19.125Q92.8-20.97 94.75-20.97L94.75-20.97Q97.3-20.97 98.31-18.884999999999998L98.31-18.884999999999998Q99.22-19.695 100.66-20.34 102.1-20.97 103.19-20.97L103.19-20.97Q105.93-20.97 106.88-18.78 107.83-16.575000000000003 107.83-10.86L107.83-10.86 107.83 0 105.77 0 105.77-10.77Q105.77-15.059999999999999 105.22-16.634999999999998 104.67-18.225 102.89-18.225L102.89-18.225Q101.99-18.225 101.03-17.835 100.07-17.445 99.55-17.07L99.55-17.07 99.02-16.695Q99.38-15.345 99.38-10.695L99.38-10.695 99.38 0 97.32 0 97.32-10.605Q97.32-15.059999999999999 96.79-16.634999999999998 96.25-18.225 94.45-18.225L94.45-18.225Q93.57-18.225 92.65-17.835 91.73-17.445 91.24-17.07L91.24-17.07 90.77-16.695ZM121.66-20.565L121.66-17.895 117.3-17.895 117.3-8.055Q117.3-4.53 117.64-3.42 117.98-2.31 119.27-2.31L119.27-2.31 121.71-2.55 121.85 0Q120.01 0.44999999999999996 119.05 0.44999999999999996L119.05 0.44999999999999996Q116.91 0.44999999999999996 116.09-1.1099999999999999 115.27-2.67 115.27-7.08L115.27-7.08 115.27-17.895 113.32-17.895 113.32-20.565 115.27-20.565 115.27-26.849999999999998 117.3-26.849999999999998 117.3-20.565 121.66-20.565ZM129.24-16.98L129.24 0 127.18 0 127.18-29.535000000000004 129.24-29.535000000000004 129.24-19.41Q131.43-20.97 133.46-20.97L133.46-20.97Q136.2-20.97 137.15-18.75 138.09-16.53 138.09-10.86L138.09-10.86 138.09 0 136.04 0 136.04-10.77Q136.04-15.059999999999999 135.47-16.634999999999998 134.91-18.225 133.1-18.225L133.1-18.225Q131.37-18.225 129.76-17.28L129.76-17.28 129.24-16.98ZM149.21-18.225L149.21-18.225Q146.22-18.225 146.22-15.09L146.22-15.09Q146.22-13.649999999999999 146.9-13.065000000000001 147.59-12.465 150.03-11.82 152.47-11.19 153.49-10.035 154.5-8.879999999999999 154.5-5.715 154.5-2.55 153.14-1.065 151.79 0.405 149.18 0.405L149.18 0.405Q147.48 0.405 145.18-0.165L145.18-0.165 144.35-0.375 144.46-3.045Q147.59-2.34 149.18-2.34 150.77-2.34 151.61-3.1049999999999995 152.44-3.87 152.44-5.655 152.44-7.4399999999999995 151.73-8.084999999999999 151.02-8.715 148.6-9.3 146.19-9.870000000000001 145.18-10.98 144.16-12.09 144.16-15.09 144.16-18.09 145.58-19.53 146.99-20.97 149.1-20.97L149.1-20.97Q150.77-20.97 153.29-20.4L153.29-20.4 154.06-20.19 154.01-17.565Q150.96-18.225 149.21-18.225ZM169.15-29.535000000000004L171.18-29.535000000000004 171.18 0 169.15 0 169.15-1.395Q167.04 0.405 164.99 0.405L164.99 0.405Q163.89 0.405 163.07 0 162.24-0.405 161.53-1.4849999999999999L161.53-1.4849999999999999Q160.05-3.705 160.05-9.69 160.05-15.674999999999999 161.38-18.330000000000002 162.71-20.97 165.78-20.97L165.78-20.97Q167.37-20.97 169.15-20.445L169.15-20.445 169.15-29.535000000000004ZM163.12-3.705Q163.56-2.925 164.05-2.625 164.55-2.34 165.33-2.34 166.11-2.34 167.08-2.73 168.06-3.12 168.6-3.495L168.6-3.495 169.15-3.87 169.15-17.805Q167.4-18.299999999999997 165.89-18.299999999999997L165.89-18.299999999999997Q163.81-18.299999999999997 162.98-16.305 162.16-14.309999999999999 162.16-10.125L162.16-10.125Q162.16-5.34 163.12-3.705L163.12-3.705ZM187.48-2.55L187.48-2.55 188.28-2.67 188.33-0.24Q185.2 0.405 182.98 0.405L182.98 0.405Q180.02 0.405 178.79-2.16 177.55-4.725 177.55-10.155L177.55-10.155Q177.55-20.97 183.29-20.97L183.29-20.97Q186.05-20.97 187.43-18.645 188.8-16.335 188.8-11.355L188.8-11.355 188.69-9 179.64-9Q179.64-5.595 180.46-3.945 181.28-2.31 183.33-2.31 185.37-2.31 187.48-2.55ZM179.61-11.475000000000001L186.74-11.475000000000001Q186.74-15.254999999999999 185.93-16.815 185.12-18.39 183.3-18.39 181.48-18.39 180.56-16.740000000000002 179.64-15.09 179.61-11.475000000000001L179.61-11.475000000000001ZM197.36 0L193.5-20.565 195.69-20.565 198.9-2.67 199.91-2.67 203.23-20.565 205.34-20.565 201.48 0 197.36 0Z"
              transform="translate(-1.399999976158142, 29.53499984741211)" stroke-width="2.8" stroke-linejoin="round" />
          </g>
        </g>
      </g>
    </g>
  </g>
</svg>